<?xml version="1.0" encoding="UTF-8"?>
<svg version="1.1" xmlns="http://www.w3.org/2000/svg" width="612" height="408">
<path d="M0 0 C0.99 0.33 1.98 0.66 3 1 C3 3.64 3 6.28 3 9 C3.639375 9.28875 4.27875 9.5775 4.9375 9.875 C7 11 7 11 8 13 C8.39116409 16.59870962 8.47841359 18.34439619 6.3125 21.3125 C3.71286659 23.20952979 2.21811968 23.91954701 -1 24 C-1.639375 23.484375 -2.27875 22.96875 -2.9375 22.4375 C-3.618125 21.963125 -4.29875 21.48875 -5 21 C-7.01391949 21.62335603 -9.01132287 22.30028027 -11 23 C-14.34040046 23.18502218 -17.6577384 23.11889468 -21 23 C-21.33 21.68 -21.66 20.36 -22 19 C-22.66 19 -23.32 19 -24 19 C-24.309375 19.639375 -24.61875 20.27875 -24.9375 20.9375 C-26 23 -26 23 -27 24 C-28.99958364 24.04080783 -31.00045254 24.04254356 -33 24 C-33 23.34 -33 22.68 -33 22 C-33.94875 22.495 -34.8975 22.99 -35.875 23.5 C-40.51587433 25.52978692 -45.02390572 25.27033108 -50 25 C-50.625 22.625 -50.625 22.625 -51 20 C-50.34 19.34 -49.68 18.68 -49 18 C-48.835 17.319375 -48.67 16.63875 -48.5 15.9375 C-48.2525 14.9784375 -48.2525 14.9784375 -48 14 C-47.34 13.67 -46.68 13.34 -46 13 C-46 12.01 -46 11.02 -46 10 C-46.33 10.66 -46.66 11.32 -47 12 C-48.32 12 -49.64 12 -51 12 C-50.25 6.25 -50.25 6.25 -48 4 C-44.5625 3.5625 -44.5625 3.5625 -41 4 C-38.65502127 6.64755663 -38.04708671 8.2936993 -37.8125 11.8125 C-37.874375 12.534375 -37.93625 13.25625 -38 14 C-37.62875 12.9171875 -37.62875 12.9171875 -37.25 11.8125 C-35.81434262 8.58227089 -34.61600467 6.40389618 -32 4 C-27.73909778 4.07475267 -25.55499889 4.63000074 -22 7 C-21.4225 6.360625 -20.845 5.72125 -20.25 5.0625 C-17.98625715 2.98740239 -17.02155695 2.18884731 -14 2 C-11.875 2.5 -11.875 2.5 -10 4 C-8.75 7.625 -8.75 7.625 -8 11 C-7.67 10.01 -7.34 9.02 -7 8 C-6.34 8 -5.68 8 -5 8 C-4.9175 7.4225 -4.835 6.845 -4.75 6.25 C-3.79468987 3.3840696 -2.21530827 2.0009236 0 0 Z M-22 9 C-22.33 9.99 -22.66 10.98 -23 12 C-22.34 12 -21.68 12 -21 12 C-21.66 13.65 -22.32 15.3 -23 17 C-20.96758273 16.36020151 -20.96758273 16.36020151 -19 15 C-18.18828772 12.44480079 -18.18828772 12.44480079 -18 10 C-19.32 9.67 -20.64 9.34 -22 9 Z M-29 11 C-29.33 13.64 -29.66 16.28 -30 19 C-27.65026182 17.10244856 -27.65026182 17.10244856 -27.875 13.875 C-27.936875 12.451875 -27.936875 12.451875 -28 11 C-28.33 11 -28.66 11 -29 11 Z M-10 12 C-10.33 13.65 -10.66 15.3 -11 17 C-10.01 16.67 -9.02 16.34 -8 16 C-8.66 14.68 -9.32 13.36 -10 12 Z M-41 17 C-40.67 17.66 -40.34 18.32 -40 19 C-39.01 18.67 -38.02 18.34 -37 18 C-37 17.34 -37 16.68 -37 16 C-39.0745356 15.8509288 -39.0745356 15.8509288 -41 17 Z M2 15 C1.01 15.66 0.02 16.32 -1 17 C0.32 17 1.64 17 3 17 C2.67 16.34 2.34 15.68 2 15 Z " fill="#DCDDDD" transform="translate(507,156)"/>
<path d="M0 0 C1.32 0.33 2.64 0.66 4 1 C4 5.29 4 9.58 4 14 C5.32 12.68 6.64 11.36 8 10 C11.41605892 10.17080295 14.03387957 11.35215531 17 13 C17.53625 12.319375 18.0725 11.63875 18.625 10.9375 C21 9 21 9 24.25 9.25 C25.1575 9.4975 26.065 9.745 27 10 C27 12.31 27 14.62 27 17 C27.99 17.33 28.98 17.66 30 18 C29.855625 16.72125 29.71125 15.4425 29.5625 14.125 C29.48128906 13.40570313 29.40007812 12.68640625 29.31640625 11.9453125 C29.08707039 9.92595684 29.08707039 9.92595684 28 8 C28.66 8 29.32 8 30 8 C30 6.02 30 4.04 30 2 C31.65 1.67 33.3 1.34 35 1 C35.495 9.91 35.495 9.91 36 19 C37.32 18.67 38.64 18.34 40 18 C39.25 23.75 39.25 23.75 37 26 C34.51511133 25.67304096 32.25723115 25.08322184 29.875 24.3125 C27.67085333 23.72547363 27.67085333 23.72547363 25 26 C20.74669397 25.72851238 18.19063111 24.82248136 15 22 C14.34 23.32 13.68 24.64 13 26 C6.375 26.25 6.375 26.25 3 24 C3 21.36 3 18.72 3 16 C2.67 21.28 2.34 26.56 2 32 C-0.475 32.495 -0.475 32.495 -3 33 C-3.0515625 32.06800781 -3.103125 31.13601562 -3.15625 30.17578125 C-3.97700282 20.95163876 -6.05184302 15.16518076 -11.41796875 7.609375 C-11.94003906 6.74828125 -12.46210938 5.8871875 -13 5 C-12.67 4.01 -12.34 3.02 -12 2 C-11.01 1.67 -10.02 1.34 -9 1 C-7.02 3.31 -5.04 5.62 -3 8 C-2.67 7.01 -2.34 6.02 -2 5 C-1.3400321 3.33066942 -0.67441131 1.6635479 0 0 Z M24 18 C23.01 19.485 23.01 19.485 22 21 C22.99 20.67 23.98 20.34 25 20 C24.67 19.34 24.34 18.68 24 18 Z " fill="#C5C5C5" transform="translate(401,159)"/>
<path d="M0 0 C6.13343309 0.76651563 8.19718721 4.12832375 11.875 8.75 C12.48085937 9.46671875 13.08671875 10.1834375 13.7109375 10.921875 C14.56171875 11.97375 14.56171875 11.97375 15.4296875 13.046875 C15.94772949 13.68463867 16.46577148 14.32240234 16.99951172 14.97949219 C18.32679966 17.65997901 17.82335009 19.19221189 17 22 C15.02 22 13.04 22 11 22 C10.67 20.68 10.34 19.36 10 18 C9.01 18 8.02 18 7 18 C7 22.29 7 26.58 7 31 C5.35 31.33 3.7 31.66 2 32 C-1.09902323 28.90097677 -0.9898579 26.60852615 -1.0625 22.25 C-1.041875 21.1775 -1.02125 20.105 -1 19 C-4.27773504 19.75150023 -4.27773504 19.75150023 -6 23 C-8.5625 23.25 -8.5625 23.25 -11 23 C-12 22 -12 22 -12.26171875 19.77734375 C-11.93304524 16.28948012 -10.74605225 14.46901244 -8.8125 11.5625 C-8.17828125 10.60859375 -7.5440625 9.6546875 -6.890625 8.671875 C-4.7327053 5.62225295 -2.48548943 2.78676087 0 0 Z M6 16 C7 18 7 18 7 18 Z " fill="#D4D4D4" transform="translate(170,159)"/>
<path d="M0 0 C1.32 0.33 2.64 0.66 4 1 C4 5.29 4 9.58 4 14 C5.32 12.68 6.64 11.36 8 10 C10.6875 10.125 10.6875 10.125 13 11 C13.33 11.66 13.66 12.32 14 13 C13.525625 13.4125 13.05125 13.825 12.5625 14.25 C10.82060046 16.20092748 10.58221635 17.50478706 10 20 C9.34 20.33 8.68 20.66 8 21 C7.505 18.525 7.505 18.525 7 16 C6.34 16 5.68 16 5 16 C5.33 18.97 5.66 21.94 6 25 C5.01 24.67 4.02 24.34 3 24 C3 21.36 3 18.72 3 16 C2.67 21.28 2.34 26.56 2 32 C-0.475 32.495 -0.475 32.495 -3 33 C-3.0515625 32.06800781 -3.103125 31.13601562 -3.15625 30.17578125 C-3.97700282 20.95163876 -6.05184302 15.16518076 -11.41796875 7.609375 C-11.94003906 6.74828125 -12.46210938 5.8871875 -13 5 C-12.67 4.01 -12.34 3.02 -12 2 C-11.01 1.67 -10.02 1.34 -9 1 C-7.02 3.31 -5.04 5.62 -3 8 C-2.67 7.01 -2.34 6.02 -2 5 C-1.3400321 3.33066942 -0.67441131 1.6635479 0 0 Z " fill="#D0D0D0" transform="translate(401,159)"/>
<path d="M0 0 C3.5625 0.4375 3.5625 0.4375 5.5 2.625 C6.57690405 5.47562837 6.82087637 7.42310902 6.5625 10.4375 C7.2225 8.7875 7.8825 7.1375 8.5625 5.4375 C9.2225 5.7675 9.8825 6.0975 10.5625 6.4375 C10.8925 5.7775 11.2225 5.1175 11.5625 4.4375 C12.2225 4.4375 12.8825 4.4375 13.5625 4.4375 C13.5625 5.7575 13.5625 7.0775 13.5625 8.4375 C14.2225 8.4375 14.8825 8.4375 15.5625 8.4375 C15.2325 9.7575 14.9025 11.0775 14.5625 12.4375 C13.9025 12.1075 13.2425 11.7775 12.5625 11.4375 C12.2325 12.4275 11.9025 13.4175 11.5625 14.4375 C11.2325 15.0975 10.9025 15.7575 10.5625 16.4375 C9.2425 16.4375 7.9225 16.4375 6.5625 16.4375 C5.5725 18.9125 5.5725 18.9125 4.5625 21.4375 C1.2625 21.4375 -2.0375 21.4375 -5.4375 21.4375 C-6.0625 19.0625 -6.0625 19.0625 -6.4375 16.4375 C-5.7775 15.7775 -5.1175 15.1175 -4.4375 14.4375 C-4.19 13.4165625 -4.19 13.4165625 -3.9375 12.375 C-3.69 11.4159375 -3.69 11.4159375 -3.4375 10.4375 C-2.7775 10.1075 -2.1175 9.7775 -1.4375 9.4375 C-1.4375 8.4475 -1.4375 7.4575 -1.4375 6.4375 C-1.7675 7.0975 -2.0975 7.7575 -2.4375 8.4375 C-3.7575 8.4375 -5.0775 8.4375 -6.4375 8.4375 C-5.42704984 0.69071543 -5.42704984 0.69071543 0 0 Z M3.5625 13.4375 C3.8925 14.0975 4.2225 14.7575 4.5625 15.4375 C5.5525 15.1075 6.5425 14.7775 7.5625 14.4375 C7.5625 13.7775 7.5625 13.1175 7.5625 12.4375 C5.4879644 12.2884288 5.4879644 12.2884288 3.5625 13.4375 Z " fill="#F5F6F6" transform="translate(462.4375,159.5625)"/>
<path d="M0 0 C0.66 0.33 1.32 0.66 2 1 C0.68 2.32 -0.64 3.64 -2 5 C-0.68 5 0.64 5 2 5 C1.67 6.32 1.34 7.64 1 9 C-1.31 8.67 -3.62 8.34 -6 8 C-6.33 8.66 -6.66 9.32 -7 10 C-6.34 10 -5.68 10 -5 10 C-5.33 11.32 -5.66 12.64 -6 14 C-4.35 13.01 -2.7 12.02 -1 11 C-1.33 12.32 -1.66 13.64 -2 15 C-2.66 15 -3.32 15 -4 15 C-4 15.99 -4 16.98 -4 18 C-5.32 17.67 -6.64 17.34 -8 17 C-8.309375 17.639375 -8.61875 18.27875 -8.9375 18.9375 C-10 21 -10 21 -11 22 C-12.99958364 22.04080783 -15.00045254 22.04254356 -17 22 C-17 21.34 -17 20.68 -17 20 C-17.99 20.66 -18.98 21.32 -20 22 C-20.99 22 -21.98 22 -23 22 C-22.625 19.5625 -22.625 19.5625 -22 17 C-21.34 16.67 -20.68 16.34 -20 16 C-19.67 15.67 -19.34 15.34 -19 15 C-18.34 15 -17.68 15 -17 15 C-16.67 14.34 -16.34 13.68 -16 13 C-15.34 13 -14.68 13 -14 13 C-13.67 13.66 -13.34 14.32 -13 15 C-13 13.35 -13 11.7 -13 10 C-13.66 10 -14.32 10 -15 10 C-15 8.68 -15 7.36 -15 6 C-15.66 6 -16.32 6 -17 6 C-17.33 6.99 -17.66 7.98 -18 9 C-18.33 8.01 -18.66 7.02 -19 6 C-17.5625 3.8125 -17.5625 3.8125 -16 2 C-9.375 2.75 -9.375 2.75 -6 5 C-5.38125 4.360625 -4.7625 3.72125 -4.125 3.0625 C-2 1 -2 1 0 0 Z " fill="#CAC9CC" transform="translate(491,158)"/>
<path d="M0 0 C4.98245283 1.12105189 9.55270156 3.62139648 14.16796875 5.76171875 C17.4933688 7.21572126 20.8526725 8.3606044 24.3203125 9.421875 C26 10 26 10 27 11 C27.125 13.5 27.125 13.5 27 16 C26.67 16.33 26.34 16.66 26 17 C18.93648623 16.6636422 13.41927655 14.86413899 7 12 C6.14277344 11.63132813 5.28554687 11.26265625 4.40234375 10.8828125 C-1.81845238 8.18154762 -1.81845238 8.18154762 -3 7 C-3.25 4.5625 -3.25 4.5625 -3 2 C-2.01 1.34 -1.02 0.68 0 0 Z " fill="#CCCCCC" transform="translate(228,227)"/>
<path d="M0 0 C0.33 2.31 0.66 4.62 1 7 C-19.04190962 16.571793 -19.04190962 16.571793 -28 16 C-29.125 11.25 -29.125 11.25 -28 9 C-26.06573823 8.32271262 -24.10030894 7.73361482 -22.125 7.1875 C-16.56915677 5.56780973 -11.51221123 3.53541974 -6.33984375 0.953125 C-4 0 -4 0 0 0 Z " fill="#D0D0D0" transform="translate(357,232)"/>
<path d="M0 0 C1.29873047 0.09990234 2.59746094 0.19980469 3.93554688 0.30273438 C5.30732219 0.42413477 6.67906667 0.54588405 8.05078125 0.66796875 C9.43412761 0.77945847 10.81759135 0.88950186 12.20117188 0.99804688 C15.5899673 1.26962282 18.97685479 1.55600607 22.36328125 1.85546875 C22.74461424 3.84687435 23.07653707 5.84825952 23.36328125 7.85546875 C21.70797269 9.51077731 19.75468185 8.98547407 17.48046875 8.98828125 C16.47757812 8.98957031 15.4746875 8.99085938 14.44140625 8.9921875 C13.384375 8.98832031 12.32734375 8.98445312 11.23828125 8.98046875 C9.68753906 8.98626953 9.68753906 8.98626953 8.10546875 8.9921875 C2.75063925 8.98535736 -2.36245584 8.7967678 -7.63671875 7.85546875 C-8.29671875 6.20546875 -8.95671875 4.55546875 -9.63671875 2.85546875 C-6.92391031 -0.91683023 -4.38361238 -0.36370583 0 0 Z " fill="#D6D6D6" transform="translate(283.63671875,243.14453125)"/>
<path d="M0 0 C2.475 0.495 2.475 0.495 5 1 C5.64453125 2.7734375 5.64453125 2.7734375 6 5 C2.75182401 11.73151404 -4.20223894 18.46608014 -10 23 C-13.1875 23.91015625 -13.1875 23.91015625 -16 24 C-16.66 23.34 -17.32 22.68 -18 22 C-17.85396527 17.76499288 -14.93436157 15.74299016 -12 13 C-7.73358779 8.8504758 -3.7329258 4.6378775 0 0 Z " fill="#C7C7C7" transform="translate(392,201)"/>
<path d="M0 0 C6.03442134 0.35496596 7.87982086 1.77075729 12 6 C15.14506346 8.2690232 18.33546579 10.45298598 21.55078125 12.62109375 C24 15 24 15 24.35546875 18.28515625 C24.23816406 19.18105469 24.12085938 20.07695312 24 21 C19.03360049 21.39323398 16.6185222 20.563177 12.625 17.625 C11.75101563 16.99851563 10.87703125 16.37203125 9.9765625 15.7265625 C9.32429687 15.15679687 8.67203125 14.58703125 8 14 C8 13.34 8 12.68 8 12 C7.443125 11.773125 6.88625 11.54625 6.3125 11.3125 C3.25844165 9.57911553 1.2174567 7.72430394 -1 5 C-0.8125 2.1875 -0.8125 2.1875 0 0 Z " fill="#D7D7D7" transform="translate(184,200)"/>
<path d="M0 0 C1.42857143 8.42857143 1.42857143 8.42857143 -1 13 C0.32 12.34 1.64 11.68 3 11 C3 11.66 3 12.32 3 13 C3.99 13 4.98 13 6 13 C6 13.66 6 14.32 6 15 C4.02 15.33 2.04 15.66 0 16 C-0.33 16.99 -0.66 17.98 -1 19 C-4.3 19 -7.6 19 -11 19 C-11.33 18.01 -11.66 17.02 -12 16 C-11.34 16 -10.68 16 -10 16 C-10 15.01 -10 14.02 -10 13 C-9.34 13 -8.68 13 -8 13 C-8.33 12.01 -8.66 11.02 -9 10 C-9 9.01 -9 8.02 -9 7 C-8.360625 6.896875 -7.72125 6.79375 -7.0625 6.6875 C-6.381875 6.460625 -5.70125 6.23375 -5 6 C-4.67 5.01 -4.34 4.02 -4 3 C-5.32 3 -6.64 3 -8 3 C-7.67 2.01 -7.34 1.02 -7 0 C-4.3333581 -1.33332095 -2.83319697 -0.67102033 0 0 Z " fill="#DADADB" transform="translate(497,160)"/>
<path d="M0 0 C2.625 -0.1875 2.625 -0.1875 5 0 C5.66 1.32 6.32 2.64 7 4 C6.030625 4.309375 5.06125 4.61875 4.0625 4.9375 C0.57389459 6.10752604 0.57389459 6.10752604 -1.1640625 9.06640625 C-2.6378193 11.58440249 -4.05011012 13.82578651 -6 16 C-9.875 16.5625 -9.875 16.5625 -13 16 C-13.33 12.7 -13.66 9.4 -14 6 C-13.01 5.67 -12.02 5.34 -11 5 C-11 6.98 -11 8.96 -11 11 C-10.34 11 -9.68 11 -9 11 C-8.67 8.69 -8.34 6.38 -8 4 C-5.92446352 3.4465236 -4.15634036 3 -2 3 C-1.34 2.01 -0.68 1.02 0 0 Z " fill="#EFEFEF" transform="translate(420,169)"/>
<path d="M0 0 C0.33 1.32 0.66 2.64 1 4 C2.32 4.33 3.64 4.66 5 5 C5 5.99 5 6.98 5 8 C5.99 8.33 6.98 8.66 8 9 C7.01 10.98 6.02 12.96 5 15 C1.7 15 -1.6 15 -5 15 C-5.625 12.625 -5.625 12.625 -6 10 C-5.34 9.34 -4.68 8.68 -4 8 C-3.835 7.319375 -3.67 6.63875 -3.5 5.9375 C-3.335 5.298125 -3.17 4.65875 -3 4 C-2.34 3.67 -1.68 3.34 -1 3 C-0.67 2.01 -0.34 1.02 0 0 Z " fill="#CBCBCC" transform="translate(462,166)"/>
<path d="M0 0 C1.32 0 2.64 0 4 0 C4 6.27 4 12.54 4 19 C2.02 19.99 2.02 19.99 0 21 C0 20.34 0 19.68 0 19 C-1.98 18.67 -3.96 18.34 -6 18 C-6 17.67 -6 17.34 -6 17 C-4.35 17 -2.7 17 -1 17 C-1.144375 15.72125 -1.28875 14.4425 -1.4375 13.125 C-1.55931641 12.04605469 -1.55931641 12.04605469 -1.68359375 10.9453125 C-1.91292961 8.92595684 -1.91292961 8.92595684 -3 7 C-2.34 7 -1.68 7 -1 7 C-1.020625 6.030625 -1.04125 5.06125 -1.0625 4.0625 C-1 1 -1 1 0 0 Z " fill="#DADADA" transform="translate(432,160)"/>
<path d="M0 0 C4.35453922 0.25614937 6.49609768 0.57277847 9.875 3.4375 C12 6 12 6 13 8 C11.68 7.67 10.36 7.34 9 7 C9.33 9.31 9.66 11.62 10 14 C9.34 14 8.68 14 8 14 C8 13.34 8 12.68 8 12 C7.443125 11.773125 6.88625 11.54625 6.3125 11.3125 C3.25844165 9.57911553 1.2174567 7.72430394 -1 5 C-0.8125 2.1875 -0.8125 2.1875 0 0 Z " fill="#D1D1D1" transform="translate(184,200)"/>
<path d="M0 0 C0.7425 0.763125 1.485 1.52625 2.25 2.3125 C4.81255089 4.9607804 4.81255089 4.9607804 7.3125 6.625 C7.869375 7.07875 8.42625 7.5325 9 8 C9 8.99 9 9.98 9 11 C8.01 11.66 7.02 12.32 6 13 C5.01 14.485 5.01 14.485 4 16 C2.80017556 14.07010782 1.61547182 12.13080772 0.4375 10.1875 C-0.55443359 8.56908203 -0.55443359 8.56908203 -1.56640625 6.91796875 C-3 4 -3 4 -2 1 C-1.34 0.67 -0.68 0.34 0 0 Z " fill="#C4C4C4" transform="translate(391,160)"/>
<path d="M0 0 C0.66 0.33 1.32 0.66 2 1 C2 1.99 2 2.98 2 4 C4.64 3.01 7.28 2.02 10 1 C10 1.66 10 2.32 10 3 C10.99 3 11.98 3 13 3 C13 3.66 13 4.32 13 5 C11.02 5.33 9.04 5.66 7 6 C6.67 6.99 6.34 7.98 6 9 C2.7 9 -0.6 9 -4 9 C-4.33 8.01 -4.66 7.02 -5 6 C-4.34 6 -3.68 6 -3 6 C-3 5.01 -3 4.02 -3 3 C-2.34 3 -1.68 3 -1 3 C-0.67 2.01 -0.34 1.02 0 0 Z " fill="#E1E1E2" transform="translate(490,170)"/>
<path d="M0 0 C1.65 0.33 3.3 0.66 5 1 C5.65234375 2.765625 5.65234375 2.765625 6 5 C5.00390625 6.921875 5.00390625 6.921875 3.5625 8.75 C3.08941406 9.36359375 2.61632812 9.9771875 2.12890625 10.609375 C1.75636719 11.06828125 1.38382812 11.5271875 1 12 C-1.0625 10.25 -1.0625 10.25 -3 8 C-2.81358559 5.01736939 -1.39977879 2.61292041 0 0 Z " fill="#E5E5E5" transform="translate(392,201)"/>
<path d="M0 0 C2.5625 0.25 2.5625 0.25 5 1 C5.33 1.66 5.66 2.32 6 3 C5.2884375 3.61875 5.2884375 3.61875 4.5625 4.25 C2.82060046 6.20092748 2.58221635 7.50478706 2 10 C1.01 10.495 1.01 10.495 0 11 C-0.33 9.35 -0.66 7.7 -1 6 C-1.66 6 -2.32 6 -3 6 C-2.67 8.97 -2.34 11.94 -2 15 C-2.99 14.67 -3.98 14.34 -5 14 C-4.96744792 11.98177083 -4.93489583 9.96354167 -4.90234375 7.9453125 C-4.87350758 5.91814596 -4.87350758 5.91814596 -6 4 C-5.38125 3.71125 -4.7625 3.4225 -4.125 3.125 C-1.86674235 2.06279958 -1.86674235 2.06279958 0 0 Z " fill="#A6A6A6" transform="translate(409,169)"/>
<path d="M0 0 C0.38218767 1.65614657 0.71395102 3.32457024 1 5 C0 6 0 6 -2.06640625 6.09765625 C-2.89011719 6.08605469 -3.71382813 6.07445312 -4.5625 6.0625 C-5.38878906 6.05347656 -6.21507812 6.04445312 -7.06640625 6.03515625 C-7.70449219 6.02355469 -8.34257812 6.01195312 -9 6 C-9.33 4.68 -9.66 3.36 -10 2 C-6.49223216 0.39644899 -3.85645121 -0.22036864 0 0 Z " fill="#A9A9A9" transform="translate(452,169)"/>
<path d="M0 0 C1.670625 0.061875 1.670625 0.061875 3.375 0.125 C3.705 0.785 4.035 1.445 4.375 2.125 C2.375 4.125 2.375 4.125 0.3125 5.125 C-1.79365601 5.97089942 -1.79365601 5.97089942 -2.625 8.125 C-3.945 8.125 -5.265 8.125 -6.625 8.125 C-5.59036145 0.19277108 -5.59036145 0.19277108 0 0 Z " fill="#CBCBCB" transform="translate(462.625,159.875)"/>
<path d="M0 0 C2.875 0.3125 2.875 0.3125 6 1 C8.31282587 4.46923881 8.42478586 5.92205575 8 10 C6.5 11.875 6.5 11.875 5 13 C5.33 10.69 5.66 8.38 6 6 C5.01 6.66 4.02 7.32 3 8 C0.9375 5.6875 0.9375 5.6875 -1 3 C-0.67 2.01 -0.34 1.02 0 0 Z " fill="#C5C4C5" transform="translate(507,165)"/>
<path d="M0 0 C2.31 0.33 4.62 0.66 7 1 C5.515 2.485 5.515 2.485 4 4 C4.66 4.66 5.32 5.32 6 6 C5.625 9.625 5.625 9.625 5 13 C4.67 13 4.34 13 4 13 C3.67 11.35 3.34 9.7 3 8 C2.34 8 1.68 8 1 8 C1 6.68 1 5.36 1 4 C0.34 4 -0.32 4 -1 4 C-1.33 4.99 -1.66 5.98 -2 7 C-2.33 6.01 -2.66 5.02 -3 4 C-1.5625 1.8125 -1.5625 1.8125 0 0 Z " fill="#AAAAAA" transform="translate(475,160)"/>
<path d="M0 0 C0.66 0.33 1.32 0.66 2 1 C0.68 2.32 -0.64 3.64 -2 5 C-0.68 5 0.64 5 2 5 C1.67 6.32 1.34 7.64 1 9 C-2.3 8.67 -5.6 8.34 -9 8 C-8.67 6.68 -8.34 5.36 -8 4 C-7.34 4.33 -6.68 4.66 -6 5 C-5.38125 4.360625 -4.7625 3.72125 -4.125 3.0625 C-2 1 -2 1 0 0 Z " fill="#A9A9AA" transform="translate(491,158)"/>
<path d="M0 0 C-0.75 5.75 -0.75 5.75 -3 8 C-5.625 7.625 -5.625 7.625 -8 7 C-8 5.68 -8 4.36 -8 3 C-5.12645755 0.82542733 -3.63563409 0 0 0 Z " fill="#C8C8C8" transform="translate(441,177)"/>
<path d="M0 0 C1.32 0 2.64 0 4 0 C4 6.27 4 12.54 4 19 C3.67 19 3.34 19 3 19 C2.67 15.37 2.34 11.74 2 8 C1.01 8.495 1.01 8.495 0 9 C0 6.03 0 3.06 0 0 Z " fill="#E1E1E1" transform="translate(432,160)"/>
<path d="M0 0 C0.99 0.33 1.98 0.66 3 1 C4.17755913 3.94389782 4.03348696 4.89953913 3 8 C1.35 8 -0.3 8 -2 8 C-2.20086443 4.28400809 -2.1519437 3.22791555 0 0 Z " fill="#EDEDEE" transform="translate(465,162)"/>
<path d="M0 0 C0.103125 0.928125 0.20625 1.85625 0.3125 2.8125 C1.01644186 6.07623045 1.51707945 6.94889172 4 9 C4 9.33 4 9.66 4 10 C2.02 10 0.04 10 -2 10 C-2.33 7.03 -2.66 4.06 -3 1 C-1 0 -1 0 0 0 Z " fill="#F8F8F8" transform="translate(409,174)"/>
<path d="M0 0 C0.61875 0.33 1.2375 0.66 1.875 1 C3.91018344 2.14193235 3.91018344 2.14193235 6 2 C5.67 3.65 5.34 5.3 5 7 C3.33388095 7.042721 1.66617115 7.04063832 0 7 C-1 6 -1 6 -1.125 3.5 C-1 1 -1 1 0 0 Z " fill="#B9B9B9" transform="translate(159,175)"/>
<path d="M0 0 C0.928125 0.20625 1.85625 0.4125 2.8125 0.625 C3.1425 1.945 3.4725 3.265 3.8125 4.625 C1.5025 4.955 -0.8075 5.285 -3.1875 5.625 C-3.1875 4.965 -3.1875 4.305 -3.1875 3.625 C-4.1775 2.965 -5.1675 2.305 -6.1875 1.625 C-3.1875 -0.375 -3.1875 -0.375 0 0 Z " fill="#ABABAC" transform="translate(429.1875,178.375)"/>
<path d="M0 0 C0.99 0 1.98 0 3 0 C3.625 2.375 3.625 2.375 4 5 C2 7 2 7 -1.625 7.125 C-2.73875 7.08375 -3.8525 7.0425 -5 7 C-5 6.67 -5 6.34 -5 6 C-3.35 5.67 -1.7 5.34 0 5 C0 4.34 0 3.68 0 3 C-0.66 2.67 -1.32 2.34 -2 2 C-1.34 1.34 -0.68 0.68 0 0 Z " fill="#B4B4B4" transform="translate(412,178)"/>
<path d="M0 0 C1.65 0 3.3 0 5 0 C5.66 1.32 6.32 2.64 7 4 C5.35 4.66 3.7 5.32 2 6 C1.01 5.01 0.02 4.02 -1 3 C-0.67 2.01 -0.34 1.02 0 0 Z " fill="#E1E1E1" transform="translate(420,169)"/>
<path d="M0 0 C0.99 0.33 1.98 0.66 3 1 C2.34 2.65 1.68 4.3 1 6 C-1.31 6 -3.62 6 -6 6 C-5.34 5.67 -4.68 5.34 -4 5 C-4 4.34 -4 3.68 -4 3 C-3.34 3 -2.68 3 -2 3 C-2 2.34 -2 1.68 -2 1 C-1.34 0.67 -0.68 0.34 0 0 Z " fill="#F9F9FA" transform="translate(467,174)"/>
<path d="M0 0 C2.31 0 4.62 0 7 0 C6.67 1.32 6.34 2.64 6 4 C3.69 4 1.38 4 -1 4 C-0.67 2.68 -0.34 1.36 0 0 Z " fill="#DBDBDB" transform="translate(443,170)"/>
<path d="M0 0 C2.475 0.495 2.475 0.495 5 1 C5.75 2.6875 5.75 2.6875 6 5 C4.0625 7.75 4.0625 7.75 2 10 C2.33 7.03 2.66 4.06 3 1 C2.01 0.67 1.02 0.34 0 0 Z " fill="#B2B2B2" transform="translate(392,201)"/>
<path d="M0 0 C1.32 0.33 2.64 0.66 4 1 C4 1.99 4 2.98 4 4 C2.68 4 1.36 4 0 4 C0 2.68 0 1.36 0 0 Z M-2 4 C-1.01 4.33 -0.02 4.66 1 5 C0.34 6.32 -0.32 7.64 -1 9 C-1.66 7.68 -2.32 6.36 -3 5 C-2.67 4.67 -2.34 4.34 -2 4 Z " fill="#AFAFAF" transform="translate(396,167)"/>
<path d="M0 0 C0.99 0.33 1.98 0.66 3 1 C2.67 2.98 2.34 4.96 2 7 C1.34 7 0.68 7 0 7 C0 5.68 0 4.36 0 3 C-0.99 2.67 -1.98 2.34 -3 2 C-2.01 1.34 -1.02 0.68 0 0 Z " fill="#C0C2C1" transform="translate(507,156)"/>
<path d="M0 0 C0 0.99 0 1.98 0 3 C-0.66 3 -1.32 3 -2 3 C-2 3.66 -2 4.32 -2 5 C-3.32 5 -4.64 5 -6 5 C-3.74193548 0 -3.74193548 0 0 0 Z " fill="#EAEAEA" transform="translate(380,217)"/>
<path d="M0 0 C0.99 0 1.98 0 3 0 C3.6875 2.8125 3.6875 2.8125 4 6 C2.5625 7.875 2.5625 7.875 1 9 C1.04125 8.236875 1.0825 7.47375 1.125 6.6875 C1.22080824 3.77281584 1.22080824 3.77281584 -1 1 C-0.67 0.67 -0.34 0.34 0 0 Z " fill="#FAFAFC" transform="translate(479,162)"/>
<path d="M0 0 C0.33 0.66 0.66 1.32 1 2 C1.99 2.33 2.98 2.66 4 3 C2.6875 4.5 2.6875 4.5 1 6 C0.01 6 -0.98 6 -2 6 C-1.125 1.125 -1.125 1.125 0 0 Z " fill="#A8A8AB" transform="translate(470,174)"/>
<path d="M0 0 C0.99 0 1.98 0 3 0 C3.1875 2.875 3.1875 2.875 3 6 C2.01 6.66 1.02 7.32 0 8 C0 5.36 0 2.72 0 0 Z " fill="#F8F8F8" transform="translate(432,161)"/>
<path d="M0 0 C0.625 1.8125 0.625 1.8125 1 4 C0.01 5.485 0.01 5.485 -1 7 C-1.99 6.67 -2.98 6.34 -4 6 C-1.125 1.125 -1.125 1.125 0 0 Z " fill="#F8F9F8" transform="translate(513,170)"/>
<path d="M0 0 C1.98 0 3.96 0 6 0 C5 2 5 2 4 3 C2.33382885 3.04063832 0.66611905 3.042721 -1 3 C-0.67 2.01 -0.34 1.02 0 0 Z " fill="#BFBEBF" transform="translate(497,175)"/>
<path d="M0 0 C0.33 0.66 0.66 1.32 1 2 C1.99 2 2.98 2 4 2 C4 2.66 4 3.32 4 4 C1.69 4 -0.62 4 -3 4 C-3 3.34 -3 2.68 -3 2 C-2.01 1.34 -1.02 0.68 0 0 Z " fill="#F4F3F4" transform="translate(499,171)"/>
</svg>
